<?xml version="1.0" encoding="UTF-8" standalone="no"?>
<!-- Generator: Adobe Illustrator 14.0.0, SVG Export Plug-In . SVG Version: 6.00 Build 43363)  -->

<svg
   xmlns:dc="http://purl.org/dc/elements/1.1/"
   xmlns:cc="http://creativecommons.org/ns#"
   xmlns:rdf="http://www.w3.org/1999/02/22-rdf-syntax-ns#"
   xmlns:svg="http://www.w3.org/2000/svg"
   xmlns="http://www.w3.org/2000/svg"
   xmlns:sodipodi="http://sodipodi.sourceforge.net/DTD/sodipodi-0.dtd"
   xmlns:inkscape="http://www.inkscape.org/namespaces/inkscape"
   version="1.1"
   id="Layer_1"
   x="0px"
   y="0px"
   width="54px"
   height="36px"
   viewBox="0 0 54 36"
   enable-background="new 0 0 54 36"
   xml:space="preserve"
   inkscape:version="0.91 r13725"
   sodipodi:docname="humidity.svg"
   inkscape:export-filename="/home/kgillespie/atmosphere_projects/element_libraries/hts221_element_library/element_code/humidity.png"
   inkscape:export-xdpi="187.09"
   inkscape:export-ydpi="187.09"><metadata
     id="metadata29"><rdf:RDF><cc:Work
         rdf:about=""><dc:format>image/svg+xml</dc:format><dc:type
           rdf:resource="http://purl.org/dc/dcmitype/StillImage" /><dc:title></dc:title></cc:Work></rdf:RDF></metadata><defs
     id="defs27" /><sodipodi:namedview
     pagecolor="#ffffff"
     bordercolor="#666666"
     borderopacity="1"
     objecttolerance="10"
     gridtolerance="10"
     guidetolerance="10"
     inkscape:pageopacity="0"
     inkscape:pageshadow="2"
     inkscape:window-width="1920"
     inkscape:window-height="1021"
     id="namedview25"
     showgrid="false"
     inkscape:zoom="7.856742"
     inkscape:cx="13.296492"
     inkscape:cy="12.157764"
     inkscape:window-x="1920"
     inkscape:window-y="0"
     inkscape:window-maximized="1"
     inkscape:current-layer="Layer_1" /><path
     fill="#009344"
     d="M47.451,3.931H5.859c-1.799,0-3.256,1.457-3.256,3.256v22.776c0,1.797,1.458,3.256,3.256,3.256h41.592  c1.798,0,3.256-1.459,3.256-3.256V7.187C50.707,5.388,49.249,3.931,47.451,3.931z M48.477,28.971c0,1.15-0.934,2.084-2.084,2.084  H6.747c-1.152,0-2.083-0.934-2.083-2.084v-8.184c0-1.15,0.931-2.082,2.083-2.082h27.577c-0.488,1.544-0.319,3.185,0.526,4.663  c1.11,1.938,3.217,3.192,5.366,3.192l0.202-0.004c2.019-0.071,3.963-1.024,5.334-2.615c1.178-1.366,1.813-3.055,1.857-4.838  c0.523,0.378,0.867,0.988,0.867,1.684V28.971z"
     id="path21" /><path
     fill="#FFFFFF"
     d="M37.543,6.047c4.364,6.133,0.514,10.415-1.282,12.194c-1.886,3.213,0.907,6.83,4.101,6.717  c3.192-0.113,6.037-3.076,5.619-6.777C45.668,15.41,42.398,9.875,37.543,6.047L37.543,6.047z M39.977,23.611l-0.121-1.232  c2.053-0.201,3.529-2.323,3.291-4.725l1.232-0.123C44.683,20.613,42.707,23.342,39.977,23.611L39.977,23.611z"
     id="path23" /><text
     xml:space="preserve"
     style="font-style:normal;font-weight:normal;font-size:9.36074448px;line-height:125%;font-family:sans-serif;letter-spacing:0px;word-spacing:0px;fill:#009344;fill-opacity:1;stroke:none;stroke-width:1px;stroke-linecap:butt;stroke-linejoin:miter;stroke-opacity:1"
     x="5.7031012"
     y="27.968454"
     id="text4157"
     sodipodi:linespacing="125%"
     transform="scale(0.96706328,1.0340585)"><tspan
       sodipodi:role="line"
       id="tspan4159"
       x="5.7031012"
       y="27.968454"
       style="font-style:normal;font-variant:normal;font-weight:500;font-stretch:expanded;font-family:Futura-CondensedMedium;-inkscape-font-specification:'Futura-CondensedMedium Medium Expanded';fill:#009344;fill-opacity:1">HUMIDITY</tspan></text>
</svg>