<?xml version="1.0" encoding="utf-8"?>
<!-- Generator: Adobe Illustrator 14.0.0, SVG Export Plug-In . SVG Version: 6.00 Build 43363)  -->
<!DOCTYPE svg PUBLIC "-//W3C//DTD SVG 1.1//EN" "http://www.w3.org/Graphics/SVG/1.1/DTD/svg11.dtd">
<svg version="1.1" id="Layer_1" xmlns="http://www.w3.org/2000/svg" xmlns:xlink="http://www.w3.org/1999/xlink" x="0px" y="0px"
	 width="54px" height="36px" viewBox="0 0 54 36" enable-background="new 0 0 54 36" xml:space="preserve">
<g>
	<path fill="#009344" d="M6.343,21.384h2.965v0.831H8.287v6.213H7.394v-6.213H6.343V21.384z"/>
	<path fill="#009344" d="M9.722,21.384h2.422v0.804h-1.511v2.23h1.34v0.803h-1.34v2.404h1.511v0.803H9.722V21.384z"/>
	<path fill="#009344" d="M13.21,21.384h0.78l0.595,2.874c0.073,0.359,0.14,0.719,0.199,1.079c0.06,0.36,0.115,0.738,0.165,1.134
		c0.006-0.052,0.01-0.092,0.013-0.121c0.003-0.028,0.006-0.049,0.009-0.062l0.127-0.808l0.114-0.766l0.101-0.507l0.53-2.824h0.789
		l0.622,7.044h-0.871l-0.153-2.391c-0.006-0.121-0.011-0.227-0.016-0.314s-0.006-0.161-0.006-0.219l-0.04-0.944l-0.022-0.867
		c0-0.006,0-0.019-0.002-0.039c-0.001-0.02-0.004-0.046-0.007-0.079l-0.022,0.141c-0.023,0.168-0.044,0.313-0.063,0.438
		s-0.036,0.229-0.05,0.314l-0.114,0.644l-0.044,0.242l-0.569,3.074H14.66l-0.534-2.655c-0.073-0.35-0.138-0.704-0.195-1.064
		c-0.057-0.361-0.108-0.738-0.155-1.134l-0.263,4.854h-0.858L13.21,21.384z"/>
	<path fill="#009344" d="M17.916,21.384h1.2c0.578,0,0.999,0.152,1.261,0.457c0.263,0.307,0.394,0.793,0.394,1.459
		c0,0.938-0.264,1.542-0.792,1.816c-0.266,0.124-0.65,0.187-1.152,0.187v3.125h-0.911V21.384z M18.827,24.491
		c0.376,0,0.636-0.079,0.779-0.237c0.146-0.161,0.219-0.447,0.219-0.858c0-0.419-0.07-0.727-0.21-0.921s-0.36-0.292-0.661-0.292
		h-0.127V24.491z"/>
	<path fill="#009344" d="M21.382,21.384h2.422v0.804h-1.511v2.23h1.34v0.803h-1.34v2.404h1.511v0.803h-2.422V21.384z"/>
	<path fill="#009344" d="M24.55,21.384h1.2c0.496,0,0.866,0.124,1.108,0.37c0.307,0.319,0.46,0.808,0.46,1.464
		c0,0.505-0.081,0.91-0.243,1.216s-0.394,0.495-0.694,0.568l1.244,3.426h-0.924l-1.239-3.449v3.449H24.55V21.384z M25.461,24.505
		c0.353,0,0.603-0.086,0.749-0.256c0.146-0.17,0.219-0.458,0.219-0.862c0-0.219-0.015-0.406-0.046-0.561
		c-0.031-0.155-0.079-0.281-0.145-0.379c-0.066-0.098-0.15-0.169-0.254-0.215c-0.104-0.045-0.227-0.068-0.37-0.068h-0.153V24.505z"
		/>
	<path fill="#009344" d="M29.203,21.384h0.711l1.449,7.044h-0.902l-0.254-1.373h-1.34l-0.259,1.373h-0.876L29.203,21.384z
		 M30.076,26.32l-0.203-1.122c-0.133-0.764-0.242-1.579-0.328-2.445c-0.041,0.423-0.094,0.851-0.156,1.284
		c-0.064,0.434-0.141,0.894-0.229,1.38l-0.166,0.903H30.076z"/>
	<path fill="#009344" d="M31.124,21.384h2.965v0.831h-1.021v6.213h-0.894v-6.213h-1.051V21.384z"/>
	<path fill="#009344" d="M34.503,21.384h0.893v4.978c0,0.508,0.044,0.846,0.132,1.013c0.091,0.167,0.269,0.251,0.534,0.251
		s0.441-0.073,0.525-0.219c0.088-0.149,0.132-0.452,0.132-0.908v-5.114h0.894v5.114c0,0.767-0.112,1.285-0.338,1.556
		c-0.269,0.308-0.679,0.461-1.23,0.461c-0.607,0-1.035-0.198-1.283-0.594c-0.172-0.271-0.258-0.79-0.258-1.56V21.384z"/>
	<path fill="#009344" d="M38.565,21.384h1.199c0.497,0,0.866,0.124,1.108,0.37c0.307,0.319,0.46,0.808,0.46,1.464
		c0,0.505-0.081,0.91-0.243,1.216s-0.394,0.495-0.694,0.568l1.244,3.426h-0.924l-1.24-3.449v3.449h-0.91V21.384z M39.476,24.505
		c0.354,0,0.604-0.086,0.749-0.256c0.146-0.17,0.22-0.458,0.22-0.862c0-0.219-0.016-0.406-0.047-0.561
		c-0.03-0.155-0.078-0.281-0.145-0.379c-0.065-0.098-0.15-0.169-0.254-0.215c-0.104-0.045-0.227-0.068-0.37-0.068h-0.153V24.505z"/>
	<path fill="#009344" d="M42.255,21.384h2.422v0.804h-1.512v2.23h1.341v0.803h-1.341v2.404h1.512v0.803h-2.422V21.384z"/>
</g>
<path fill="#009344" d="M47.744,3.931H6.153c-1.799,0-3.256,1.457-3.256,3.256v22.776c0,1.797,1.457,3.256,3.256,3.256h41.591
	c1.799,0,3.256-1.459,3.256-3.256V7.187C51,5.388,49.543,3.931,47.744,3.931z M48.77,28.971c0,1.15-0.934,2.084-2.082,2.084H7.041
	c-1.151,0-2.083-0.934-2.083-2.084v-8.184c0-1.15,0.932-2.082,2.083-2.082h14.746c0.973,1.049,2.355,1.688,3.871,1.688
	c0.545,0,1.084-0.085,1.623-0.258c0.859-0.287,1.602-0.79,2.199-1.43h17.208c1.148,0,2.082,0.931,2.082,2.082V28.971z"/>
<path fill="#FFFFFF" d="M47.695,10.412l-18.611,5.989c-0.379,1.007-1.193,1.845-2.312,2.219c-1.909,0.612-4-0.436-4.613-2.347
	c-0.591-1.937,0.439-4,2.365-4.642c1.131-0.327,2.293-0.145,3.19,0.5l18.61-5.99c1.164-0.389,2.459,0.278,2.814,1.426
	c0.37,1.196-0.279,2.457-1.445,2.845L47.695,10.412z M44.439,8.402l-17.818,5.752c-0.387-0.389-0.948-0.551-1.467-0.36
	c-0.763,0.254-1.176,1.037-0.92,1.797c0.224,0.742,1.037,1.177,1.798,0.923c0.535-0.146,0.896-0.63,0.974-1.116l17.817-5.751
	c0.341-0.091,0.551-0.456,0.432-0.813C45.163,8.495,44.779,8.313,44.439,8.402L44.439,8.402z"/>
</svg>
